<?xml version="1.0" encoding="utf-8"?>
<!-- Generator: Adobe Illustrator 21.0.0, SVG Export Plug-In . SVG Version: 6.00 Build 0)  -->
<svg version="1.1" id="Calque_1" xmlns="http://www.w3.org/2000/svg" xmlns:xlink="http://www.w3.org/1999/xlink" x="0px" y="0px"
	 viewBox="0 0 120 120" style="enable-background:new 0 0 120 120;" xml:space="preserve">
<style type="text/css">
	.st0{fill:#FEA500;}
</style>
<path class="st0" d="M99,61.9V49.8c0,0,0,0,0,0l0.3,0c3.1-0.5,5.4-3.3,5.4-6.4l0-23.8c0-3.6-2.9-6.6-6.6-6.6L71,13V9.2
	C71,5.8,68.2,3,64.8,3H41.9c-3.4,0-6.2,2.8-6.2,6.2V13H8.6C4.9,13,2,15.9,2,19.5v23.7c0,3.2,2.3,5.9,5.4,6.5l0.2,0v29.9
	c0,5.4,4.4,9.7,9.7,9.7h43.3c0.5,15.3,13,27.6,28.4,27.6c15.7,0,28.5-12.8,28.5-28.5C117.5,76.3,109.8,65.9,99,61.9L99,61.9z
	 M39.3,9.2c0-1.4,1.2-2.6,2.6-2.6h22.9c1.4,0,2.6,1.2,2.6,2.6V13H39.3L39.3,9.2z M5.6,43.2V19.5c0-1.6,1.3-2.9,2.9-2.9h89.5
	c1.6,0,2.9,1.3,2.9,2.9v23.8c0,1.4-1,2.7-2.4,2.9c-0.3,0-16.9,3.3-37.1,3.9c-0.2,0-0.4,0-0.7,0v-3.4c0-2.4-1.6-4.4-3.8-5
	c-0.1,0-0.2-0.1-0.4-0.1c0,0-0.1,0-0.1,0c-0.3-0.1-0.6-0.1-0.9-0.1H51c-0.3,0-0.7,0-1,0.1c0,0-0.1,0-0.1,0c-0.2,0-0.3,0.1-0.5,0.2
	c-2.1,0.7-3.7,2.6-3.7,5V50c-21.3-0.7-36-3.6-37.7-3.9C6.6,45.9,5.6,44.7,5.6,43.2L5.6,43.2z M51,45.1h4.7c0.1,0,0.2,0,0.3,0.1
	c0.7,0.2,1.3,0.8,1.3,1.6v11.6c0,0.5-0.3,1-0.6,1.3c-0.3,0.2-0.6,0.4-1,0.4H51c-0.4,0-0.7-0.1-1-0.4c-0.4-0.3-0.6-0.7-0.6-1.3V46.7
	c0-0.8,0.6-1.4,1.3-1.6C50.7,45.1,50.8,45.1,51,45.1L51,45.1z M11.3,79.7V50.4c12.8,2,22.6,2.8,33.9,3.3c0.2,0,0.4,0,0.6,0h0v4.6
	c0,1.7,0.8,3.2,2.1,4.2c0.9,0.7,2,1.1,3.1,1.1h4.7c1.2,0,2.3-0.4,3.1-1.1c1.3-1,2.1-2.5,2.1-4.2v-4.6c10.9-0.2,23.3-1.4,34.4-3.3
	v10.4c-0.1,0-0.2,0-0.3,0c-2.1-0.4-4.2-0.7-6-0.7c-14.1,0-26.5,10.4-28.2,25.1c0,0.2-0.1,0.3-0.1,0.5c0,0,0,0.1,0,0.1l-43.4,0
	C14,85.8,11.3,83.1,11.3,79.7L11.3,79.7z M89.1,113.4c-13.7,0-24.8-11.1-24.8-24.8c0-13.8,11.2-24.8,24.8-24.8c0.1,0,0.2,0,0.3,0
	c13.7,0.1,24.6,11.4,24.6,24.8C113.9,102.2,102.8,113.4,89.1,113.4L89.1,113.4z"/>
<path class="st0" d="M103.6,83.9c-0.3-0.8-0.6-1.6-1-2.4l1.2-2.2c0.6-1,0.4-2.3-0.5-3.1l-1.9-1.9c-0.7-0.7-1.9-1.1-3.4-0.3L96,75
	c-0.8-0.4-1.6-0.7-2.4-1l-0.7-2.4c-0.3-1.1-1.4-1.9-2.5-1.9h0l-2.7,0c-1,0-2.1,0.6-2.6,2.1l-0.7,2.2c-0.8,0.3-1.6,0.6-2.4,1
	l-2.2-1.2c-1-0.6-2.3-0.4-3.1,0.5l-1.9,1.9c-0.7,0.7-1.1,1.9-0.3,3.4l1.1,2c-0.4,0.8-0.7,1.6-1,2.4l-2.4,0.7
	c-1.1,0.3-1.9,1.4-1.9,2.6l0,2.7c0,1.2,0.8,2.2,1.9,2.5l2.4,0.7c0.3,0.8,0.6,1.6,1,2.4l-1.2,2.2c-0.6,1-0.4,2.3,0.5,3.1l1.9,1.9
	c0.7,0.7,1.9,1.1,3.4,0.3l2-1.1c0.8,0.4,1.6,0.7,2.4,1l0.9,3c0.2,0.8,0.9,1.3,1.7,1.3c0.2,0,4.1,0,3.9,0c0.8,0,1.5-0.5,1.7-1.3
	l0.9-3c0.8-0.3,1.6-0.6,2.4-1l2.2,1.2c1,0.6,2.3,0.4,3.1-0.5l1.9-1.9c0.7-0.7,1.1-1.9,0.3-3.4l-1-1.9c0.5-0.8,0.7-1.7,1-2.5l2.4-0.7
	c1.1-0.3,1.9-1.4,1.9-2.6l0-2.7c0-1.2-0.8-2.2-1.9-2.5L103.6,83.9z M102,89.8c-0.9,0.3-1.6,1-1.8,1.9c-0.2,0.8-0.4,1.7-0.8,2.3
	c-0.6,0.8-0.6,2-0.2,2.8l1.1,2l-0.9,0.9l-2.1-1.1c-0.8-0.4-1.8-0.4-2.6,0c-0.8,0.5-1.7,0.8-2.5,1.1c-0.9,0.2-1.6,0.9-1.8,1.8
	l-0.7,2.3l-1.3,0l-0.7-2.2c-0.3-0.9-1-1.5-1.8-1.8c-0.9-0.2-1.7-0.6-2.5-1c-0.8-0.4-1.8-0.5-2.6,0l-2.1,1.1l-0.9-0.9l1.1-2.1
	c0.4-0.8,0.4-1.8,0-2.6c-0.5-0.8-0.8-1.7-1.1-2.5c-0.2-0.9-0.9-1.6-1.8-1.8l-2.2-0.7l0-1.3l2.2-0.7c0.9-0.3,1.5-1,1.8-1.8
	c0.2-0.9,0.6-1.7,1-2.5c0.4-0.8,0.5-1.7,0-2.5l-1.1-2.1l0.9-0.9l2.1,1.1c0.8,0.4,1.8,0.4,2.6,0c0.8-0.5,1.6-0.8,2.5-1.1
	c0.9-0.2,1.6-0.9,1.8-1.8l0.7-2.3l1.3,0l0.6,2c0.4,1.3,1.3,1.8,1.9,2c0,0,0,0,0,0c0.9,0.2,1.7,0.6,2.5,1c0.8,0.4,1.7,0.5,2.5,0
	l2.1-1.1l0.9,0.9l-1.1,2.1c-0.4,0.8-0.4,1.8,0,2.6c0.5,0.8,0.8,1.7,1.1,2.5c0.2,0.9,0.9,1.6,1.8,1.8l2.2,0.7l0,1.3L102,89.8z"/>
</svg>
