<?xml version="1.0" encoding="utf-8"?>
<!-- Generator: Adobe Illustrator 21.0.0, SVG Export Plug-In . SVG Version: 6.00 Build 0)  -->
<svg version="1.1" id="Calque_1" xmlns="http://www.w3.org/2000/svg" xmlns:xlink="http://www.w3.org/1999/xlink" x="0px" y="0px"
	 viewBox="0 0 700 700" style="enable-background:new 0 0 700 700;" xml:space="preserve">
<style type="text/css">
	.st0{fill:#FEA500;}
</style>
<symbol  id="a" viewBox="-6.4 -6.3 12.8 12.6">
	<path d="M6.4,0V1h-8.9c0.1,0.9,0.4,1.6,1,2C-1,3.5-0.2,3.7,0.8,3.7c0.8,0,1.6-0.1,2.5-0.4C4.1,3.1,5,2.8,5.9,2.3v3
		C5,5.6,4,5.8,3.1,6C2.2,6.2,1.3,6.3,0.4,6.3c-2.2,0-3.8-0.5-5-1.6C-5.8,3.5-6.4,2-6.4,0c0-1.9,0.6-3.5,1.8-4.6
		c1.2-1.1,2.8-1.7,4.9-1.7c1.9,0,3.4,0.6,4.5,1.7C5.9-3.5,6.4-1.9,6.4,0L6.4,0z M2.5-1.3c0-0.7-0.2-1.3-0.6-1.8
		c-0.4-0.4-1-0.7-1.7-0.7c-0.7,0-1.3,0.2-1.8,0.6c-0.5,0.4-0.7,1-0.9,1.8L2.5-1.3z"/>
</symbol>
<symbol  id="b" viewBox="-4.8 -7.7 9.7 15.4">
	<path d="M0.9-7.7v3.4h3.9v2.7H0.9v5.1c0,0.6,0.1,0.9,0.3,1.1c0.2,0.2,0.7,0.3,1.3,0.3h2v2.7H1.2c-1.5,0-2.6-0.3-3.2-0.9
		C-2.6,6.1-2.9,5-2.9,3.5v-5.1h-1.9v-2.7h1.9v-3.4L0.9-7.7z"/>
</symbol>
<symbol  id="c" viewBox="-4.4 -6.1 8.9 12.3">
	<path d="M4.4-2.6c-0.3-0.2-0.7-0.3-1-0.3C3.1-3,2.8-3,2.4-3c-1,0-1.7,0.3-2.3,1c-0.5,0.6-0.8,1.5-0.8,2.7v5.5h-3.8v-12h3.8v2
		c0.5-0.8,1.1-1.3,1.7-1.7c0.6-0.4,1.4-0.5,2.3-0.5c0.1,0,0.3,0,0.4,0c0.1,0,0.4,0,0.7,0.1L4.4-2.6z"/>
</symbol>
<symbol  id="d" viewBox="-6.6 -6.3 13.2 12.6">
	<path d="M0-3.5c-0.8,0-1.5,0.3-1.9,0.9C-2.4-2-2.6-1.1-2.6,0c0,1.1,0.2,2,0.7,2.6C-1.5,3.2-0.8,3.5,0,3.5c0.8,0,1.5-0.3,1.9-0.9
		C2.4,2,2.6,1.1,2.6,0c0-1.1-0.2-2-0.7-2.6C1.5-3.2,0.8-3.5,0-3.5z M0-6.3c2.1,0,3.7,0.6,4.8,1.7C6-3.5,6.6-2,6.6,0S6,3.5,4.8,4.6
		C3.7,5.7,2.1,6.3,0,6.3c-2.1,0-3.7-0.6-4.8-1.7C-6,3.5-6.6,2-6.6,0S-6-3.5-4.8-4.6C-3.7-5.7-2-6.3,0-6.3z"/>
</symbol>
<symbol  id="e" viewBox="-6.6 -8 13.1 16">
	<path d="M-6.6-8h6.8c2,0,3.6,0.5,4.7,1.4C6-5.7,6.6-4.4,6.6-2.8c0,1.7-0.5,3-1.6,3.9C3.8,2,2.3,2.4,0.3,2.4h-2.7V8h-4.1V-8z
		 M-2.5-5v4.5h2.3c0.8,0,1.4-0.2,1.8-0.6c0.4-0.4,0.7-0.9,0.7-1.7c0-0.7-0.2-1.3-0.7-1.6C1.2-4.8,0.6-5-0.2-5L-2.5-5z"/>
</symbol>
<symbol  id="f" viewBox="-5.7 -8 11.3 16">
	<path d="M-5.7-8h4.1V4.9h7.2V8H-5.7L-5.7-8z"/>
</symbol>
<symbol  id="g" viewBox="-5.7 -8 11.3 16">
	<path d="M-5.7-8H5.4v3.1h-7v3H5v3.1h-6.6v3.7h7.2V8H-5.7L-5.7-8z"/>
</symbol>
<symbol  id="h" viewBox="-6.8 -8.3 13.6 16.5">
	<path d="M6.8,7.1C6,7.5,5.2,7.8,4.4,8C3.6,8.2,2.7,8.3,1.9,8.3c-2.7,0-4.8-0.7-6.3-2.2C-6,4.6-6.8,2.6-6.8,0c0-2.6,0.8-4.6,2.3-6
		c1.6-1.5,3.7-2.2,6.3-2.2c0.9,0,1.7,0.1,2.5,0.3C5.2-7.8,6-7.5,6.8-7.1v3.3C6-4.3,5.3-4.7,4.5-4.9C3.8-5.2,3-5.3,2.2-5.3
		c-1.5,0-2.6,0.5-3.5,1.4C-2.1-2.9-2.5-1.6-2.5,0c0,1.6,0.4,2.9,1.2,3.9c0.8,0.9,2,1.4,3.5,1.4c0.8,0,1.6-0.1,2.3-0.4
		C5.3,4.7,6,4.3,6.8,3.8V7.1z"/>
</symbol>
<symbol  id="i" viewBox="-11.4 -8 22.8 16">
	<path d="M-11.4-8h3.9l2.8,11.6L-2-8h4L4.7,3.6L7.5-8h3.9L7.6,8H2.9L0-4.1L-2.9,8h-4.8L-11.4-8z"/>
</symbol>
<symbol  id="j" viewBox="-6.8 -8.3 13.6 16.7">
	<path d="M-6.8-8.3H-3l3.2,8.1L3-8.3h3.8l-5,13.1C1.3,6.1,0.7,7,0,7.5c-0.7,0.5-1.6,0.8-2.7,0.8h-2.2V5.8h1.2c0.6,0,1.1-0.1,1.4-0.3
		C-2,5.3-1.7,5-1.6,4.4l0.1-0.3L-6.8-8.3z"/>
</symbol>
<symbol  id="k" viewBox="-6.4 -8.5 12.8 16.9">
	<path d="M-0.1,5.7c0.8,0,1.4-0.3,1.9-0.9c0.4-0.6,0.6-1.5,0.6-2.6c0-1.1-0.2-2-0.6-2.6C1.4-1,0.8-1.3-0.1-1.3
		c-0.8,0-1.5,0.3-1.9,0.9c-0.4,0.6-0.7,1.5-0.7,2.6c0,1.1,0.2,2,0.7,2.6C-1.5,5.4-0.9,5.7-0.1,5.7L-0.1,5.7z M-2.6-2.1
		c0.5-0.7,1.1-1.2,1.8-1.5c0.6-0.3,1.4-0.5,2.2-0.5C2.8-4.1,4-3.5,5-2.3c0.9,1.2,1.4,2.7,1.4,4.5S5.9,5.5,5,6.7
		C4,7.9,2.8,8.5,1.4,8.5C0.5,8.5-0.2,8.3-0.9,8c-0.6-0.3-1.2-0.8-1.8-1.5v1.7h-3.8V-8.5h3.8L-2.6-2.1z"/>
</symbol>
<symbol  id="l" viewBox="-6.4 -8.5 12.8 16.9">
	<path d="M2.6-2.1v-6.4h3.9V8.2H2.6V6.4C2,7.1,1.5,7.7,0.8,8C0.2,8.3-0.5,8.5-1.4,8.5c-1.5,0-2.7-0.6-3.6-1.8
		C-5.9,5.5-6.4,4-6.4,2.2S-5.9-1.2-5-2.3c0.9-1.2,2.2-1.8,3.6-1.8c0.8,0,1.6,0.2,2.2,0.5C1.5-3.3,2-2.8,2.6-2.1L2.6-2.1z M0,5.7
		c0.8,0,1.4-0.3,1.9-0.9c0.4-0.6,0.6-1.5,0.6-2.6c0-1.1-0.2-2-0.6-2.6C1.5-1,0.9-1.3,0-1.3c-0.8,0-1.4,0.3-1.9,0.9
		C-2.2,0.2-2.5,1-2.5,2.2c0,1.1,0.2,2,0.6,2.6C-1.4,5.4-0.8,5.7,0,5.7z"/>
</symbol>
<symbol  id="m" viewBox="-6.1 -6.3 12.1 12.6">
	<path d="M0.2,0.6c-0.8,0-1.4,0.1-1.8,0.4C-2,1.3-2.2,1.7-2.2,2.2C-2.2,2.7-2,3-1.7,3.3c0.3,0.3,0.8,0.4,1.4,0.4
		C0.4,3.7,1,3.5,1.5,3c0.5-0.5,0.7-1.2,0.7-2V0.6L0.2,0.6z M6.1-0.9V6H2.2V4.2C1.7,4.9,1.1,5.4,0.5,5.8C-0.2,6.1-1,6.3-1.9,6.3
		c-1.2,0-2.2-0.4-3-1.1c-0.8-0.7-1.2-1.7-1.2-2.8C-6.1,1-5.6,0-4.6-0.7c1-0.7,2.5-1,4.6-1h2.3V-2c0-0.6-0.2-1-0.7-1.3
		C1-3.6,0.2-3.7-0.8-3.7c-0.8,0-1.6,0.1-2.3,0.3c-0.7,0.2-1.4,0.4-2,0.7v-2.9C-4.2-5.9-3.4-6-2.5-6.1c0.8-0.1,1.6-0.2,2.5-0.2
		c2.2,0,3.7,0.4,4.7,1.3C5.6-4.2,6.1-2.8,6.1-0.9L6.1-0.9z"/>
</symbol>
<symbol  id="n" viewBox="-5.3 -6.3 10.6 12.6">
	<path d="M5.3-5.6v3.1c-0.5-0.4-1-0.6-1.6-0.8C3.2-3.5,2.7-3.5,2.1-3.5C1-3.5,0.2-3.2-0.4-2.6S-1.3-1.1-1.3,0c0,1.1,0.3,2,0.9,2.6
		S1,3.5,2.1,3.5c0.6,0,1.2-0.1,1.7-0.3c0.5-0.2,1-0.4,1.5-0.8v3.1C4.7,5.8,4.1,6,3.5,6.1C2.9,6.2,2.2,6.3,1.6,6.3
		c-2.2,0-3.8-0.6-5.1-1.7C-4.7,3.5-5.3,2-5.3,0s0.6-3.5,1.8-4.6c1.2-1.1,2.9-1.7,5.1-1.7c0.6,0,1.2,0.1,1.8,0.2
		C4.1-6,4.7-5.8,5.3-5.6L5.3-5.6z"/>
</symbol>
<symbol  id="o" viewBox="-3.2 -10.7 6.4 21.3">
	<path d="M-0.6-6h3.8V5.7c0,1.6-0.4,2.8-1.2,3.7c-0.8,0.8-1.9,1.3-3.3,1.3h-1.9V8.2h0.7C-1.8,8.2-1.3,8-1,7.7c0.3-0.3,0.4-1,0.4-1.9
		L-0.6-6z M-0.6-10.7h3.8v3.1h-3.8L-0.6-10.7z"/>
</symbol>
<symbol  id="p" viewBox="-6 -6.1 12 12.3">
	<path d="M6-1.2v7.3H2.2V0.5c0-1,0-1.7-0.1-2.1C2-2,2-2.3,1.9-2.5C1.7-2.7,1.5-2.9,1.2-3C1-3.2,0.7-3.2,0.4-3.2
		c-0.8,0-1.4,0.3-1.9,0.9C-2-1.7-2.2-0.8-2.2,0.2v5.9H-6v-12h3.8v1.8C-1.6-4.8-1-5.3-0.4-5.6C0.3-6,1-6.1,1.8-6.1
		c1.4,0,2.4,0.4,3.1,1.3C5.6-4,6-2.8,6-1.2L6-1.2z"/>
</symbol>
<symbol  id="q" viewBox="-6 -6.1 12 12.3">
	<path d="M-6,1.2v-7.3h3.8v1.2c0,0.6,0,1.5,0,2.4v2c0,1,0,1.7,0.1,2.1C-2.1,2-2,2.3-1.9,2.5C-1.7,2.7-1.5,2.9-1.2,3
		C-1,3.2-0.7,3.2-0.4,3.2c0.8,0,1.4-0.3,1.9-0.9C2,1.7,2.2,0.9,2.2-0.2v-5.9H6v12H2.2V4.1C1.6,4.8,1,5.3,0.4,5.6
		C-0.3,6-1,6.1-1.8,6.1c-1.4,0-2.4-0.4-3.2-1.3C-5.7,4-6,2.8-6,1.2L-6,1.2z"/>
</symbol>
<symbol  id="r" viewBox="-7.1 -8 14.3 16">
	<path d="M-7.1-8h4.6L3.3,3V-8h3.9V8H2.5L-3.3-3V8h-3.9L-7.1-8z"/>
</symbol>
<symbol  id="s" viewBox="-6 -8.3 12 16.6">
	<path d="M6,1v7.3H2.2V2.8c0-1.1,0-1.8-0.1-2.2C2,0.2,2-0.1,1.9-0.3C1.7-0.5,1.5-0.7,1.2-0.8C1-1,0.7-1.1,0.4-1.1
		c-0.8,0-1.4,0.3-1.9,0.9C-2,0.5-2.2,1.3-2.2,2.4v5.9H-6V-8.3h3.8v6.4C-1.6-2.6-1-3.1-0.4-3.4C0.3-3.8,1-3.9,1.8-3.9
		c1.4,0,2.4,0.4,3.1,1.3C5.6-1.8,6-0.6,6,1L6,1z"/>
</symbol>
<symbol  id="t" viewBox="-9.6 -6.1 19.3 12.3">
	<path d="M1.5-3.8C2-4.6,2.5-5.2,3.2-5.5c0.7-0.4,1.4-0.6,2.2-0.6c1.4,0,2.4,0.4,3.1,1.3C9.3-4,9.6-2.8,9.6-1.2v7.3H5.8v-6.2
		c0-0.1,0-0.2,0-0.3v-0.4c0-0.8-0.1-1.5-0.4-1.8C5.2-3.1,4.8-3.2,4.2-3.2c-0.7,0-1.3,0.3-1.7,0.9C2.1-1.7,1.9-0.9,1.9,0.3v5.9h-3.8
		v-6.2c0-1.3-0.1-2.2-0.3-2.6c-0.2-0.4-0.6-0.6-1.2-0.6c-0.7,0-1.3,0.3-1.7,0.9c-0.4,0.6-0.6,1.5-0.6,2.6v5.9h-3.8v-12h3.8v1.8
		c0.5-0.7,1-1.2,1.6-1.5c0.6-0.3,1.3-0.5,2-0.5c0.8,0,1.6,0.2,2.2,0.6C0.7-5.1,1.2-4.6,1.5-3.8L1.5-3.8z"/>
</symbol>
<symbol  id="u" viewBox="-4.6 -8.3 9.3 16.6">
	<path d="M4.6-8.3v2.5H2.5C2-5.8,1.6-5.7,1.4-5.5C1.2-5.3,1.1-5,1.1-4.5v0.8h3.3v2.7H1.1v9.2h-3.8v-9.2h-1.9v-2.7h1.9v-0.8
		c0-1.3,0.4-2.3,1.1-2.9C-0.9-8,0.2-8.3,1.7-8.3L4.6-8.3z"/>
</symbol>
<symbol  id="v" viewBox="-6.3 -8.3 12.6 16.5">
	<path d="M5.3-7.5v3.4C4.4-4.5,3.5-4.8,2.7-5C1.9-5.2,1.1-5.3,0.3-5.3c-1,0-1.7,0.1-2.2,0.4c-0.5,0.3-0.7,0.7-0.7,1.3
		c0,0.4,0.2,0.8,0.5,1C-1.8-2.4-1.2-2.2-0.4-2l1.8,0.3c1.8,0.4,3,0.9,3.8,1.6c0.8,0.7,1.1,1.8,1.1,3.1c0,1.8-0.5,3.1-1.6,3.9
		C3.7,7.8,2.1,8.3,0,8.3c-1,0-2-0.1-3-0.3c-1-0.2-2-0.5-3.1-0.8V3.7c1,0.5,2,0.9,3,1.2c1,0.3,1.9,0.4,2.8,0.4c0.9,0,1.6-0.1,2.1-0.4
		c0.5-0.3,0.7-0.7,0.7-1.3c0-0.5-0.2-0.9-0.5-1.1c-0.3-0.3-1-0.5-1.9-0.7l-1.6-0.4C-3.3,1-4.4,0.4-5.2-0.3c-0.7-0.7-1.1-1.8-1.1-3
		c0-1.6,0.5-2.8,1.5-3.7c1-0.9,2.5-1.3,4.4-1.3c0.9,0,1.8,0.1,2.7,0.2C3.3-7.9,4.3-7.7,5.3-7.5L5.3-7.5z"/>
</symbol>
<symbol  id="w" viewBox="-8.2 -8.3 16.4 16.5">
	<path d="M0-5.3c-1.3,0-2.2,0.5-2.9,1.4C-3.6-3-4-1.7-4,0c0,1.7,0.3,3,1,3.9C-2.2,4.8-1.3,5.3,0,5.3c1.3,0,2.2-0.5,2.9-1.4
		C3.6,3,4,1.7,4,0c0-1.7-0.3-3-1-3.9C2.2-4.8,1.3-5.3,0-5.3z M0-8.3c2.6,0,4.6,0.7,6,2.2C7.5-4.6,8.2-2.6,8.2,0
		c0,2.6-0.7,4.6-2.2,6.1C4.6,7.5,2.6,8.3,0,8.3s-4.6-0.7-6-2.2C-7.5,4.6-8.2,2.6-8.2,0c0-2.6,0.7-4.6,2.2-6.1
		C-4.6-7.5-2.6-8.3,0-8.3z"/>
</symbol>
<symbol  id="x" viewBox="-7.1 -8 14.3 16">
	<path d="M-7.1-8H-3v6.1H3V-8h4.1V8H3V1.2H-3V8h-4.1V-8z"/>
</symbol>
<symbol  id="y" viewBox="-7.3 -8 14.7 16">
	<path d="M-7.3-8H7.3v3.1H2.1V8H-2V-4.9h-5.3L-7.3-8z"/>
</symbol>
<symbol  id="z" viewBox="-6.6 -8 13.1 16">
	<path d="M-0.2-1.8c0.7,0,1.1-0.1,1.5-0.4c0.3-0.3,0.5-0.7,0.5-1.3c0-0.6-0.2-1-0.5-1.3C1-5,0.5-5.2-0.2-5.2h-2.3v3.4L-0.2-1.8z
		 M0,5.2c0.8,0,1.4-0.2,1.9-0.5c0.4-0.4,0.6-0.9,0.6-1.6c0-0.7-0.2-1.2-0.6-1.5C1.4,1.2,0.8,1,0,1h-2.4v4.2L0,5.2z M3.8-0.6
		c0.9,0.3,1.6,0.7,2,1.4c0.5,0.7,0.7,1.5,0.7,2.5C6.6,4.9,6,6.1,5,6.9C4,7.6,2.4,8,0.3,8h-6.8V-8h6.2c2.2,0,3.8,0.3,4.8,1
		c1,0.7,1.5,1.7,1.5,3.2c0,0.8-0.2,1.4-0.5,2C5-1.2,4.5-0.8,3.8-0.6L3.8-0.6z"/>
</symbol>
<g>
	<path class="st0" d="M536.4,437.6c-17.9,0-35,6.1-49,17.5l-9.6-9.6c55.1-61.7,55.1-154.9,0-216.1l31.5-31.9c3.1,2.6,6.6,4.8,10.1,7
		l0.9,0.4c23.6,13.1,52.1,13.1,75.7,0c0.4-0.4,0.9-0.4,1.8-0.9c37.6-21.4,50.8-69.6,29.3-107.6s-69.6-50.8-107.6-29.3
		s-50.8,70-29.3,108.1c2.2,3.5,4.4,7,7,10.1l-56.9,56.9c-47.7-41.6-119-41.6-166.7,0l-38.9-39.4c27.1-33.7,21.9-83.6-11.8-110.7
		S139.6,70.1,112,103.8s-21.9,83.6,11.8,110.7c28.9,23.2,69.6,23.2,98.4,0.4l14,14c-55.1,61.7-55.1,154.9,0,216.1L204.8,477
		c-34.1-27.1-83.6-21.4-110.7,12.3s-21.4,83.6,12.3,110.7s83.6,21.4,110.7-12.3c22.8-28.9,22.8-69.6,0-98.4l56.9-56.9
		c47.7,41.6,119,41.6,166.7,0l34.6,34.6c-27.1,34.1-21.4,83.6,12.7,110.7s83.6,21.4,110.7-12.7s21.4-83.6-12.7-110.7
		C571.8,443.7,554.3,437.6,536.4,437.6L536.4,437.6z M584.5,191.7c-16.6,7.9-35.9,7.9-52.1,0c-1.8-14.4,8.8-27.6,23.2-29.3
		s27.6,8.8,29.3,23.2C584.9,187.4,584.9,189.6,584.5,191.7L584.5,191.7z M558.3,74.9c33.7,0,61.3,27.6,61.3,61.3
		c0,16.6-6.6,32.4-18.4,43.8c-2.6-11.8-9.6-21.9-19.7-28c10.9-12.7,9.6-32.4-3.5-43.3s-32.4-9.6-43.3,3.5c-9.6,11.4-9.6,28.4,0,39.8
		c-10.1,6.1-17.1,16.6-19.7,28c-24.1-23.6-24.5-62.6-0.9-86.6C525.9,81.5,541.6,74.9,558.3,74.9z M198.6,207.9v0.9
		c-16.2,7.4-34.6,7.4-50.8,0v-0.9c-0.4-2.2-0.9-4.4-0.9-6.6c0-14.4,11.8-26.3,26.3-26.3s26.3,11.8,26.3,26.3
		C199.5,203.6,199.1,205.7,198.6,207.9z M216.6,196.1c-1.8-13.1-9.2-24.9-20.1-31.9c10.9-12.7,9.6-32.4-3.5-43.3s-32.4-9.6-43.3,3.5
		c-9.6,11.4-9.6,28.4,0,39.8c-11.4,7-18.8,18.8-20.1,31.9c-24.1-24.1-23.6-62.6,0.4-86.6s62.6-23.6,86.6,0.4
		C240.2,134.4,240.2,172.9,216.6,196.1L216.6,196.1z M181.1,592.9v0.9c-16.2,7.4-34.6,7.4-50.8,0v-0.9l-1.3-6.6
		c0-14.4,11.8-26.3,26.3-26.3s26.3,11.8,26.3,26.3C182,588.6,181.6,590.7,181.1,592.9z M199.1,581.1c-1.8-13.1-9.2-24.9-20.1-31.9
		c10.9-12.7,9.6-32.4-3.5-43.3s-32.4-9.6-43.3,3.5c-9.6,11.4-9.6,28.4,0,39.8c-11.4,7-18.8,18.8-20.1,31.9
		c-24.1-24.1-23.6-62.6,0.4-86.6s62.6-23.6,86.6,0.4C222.7,519,222.7,557.5,199.1,581.1L199.1,581.1z M288.8,275.7
		c17.5-19.3,42.4-30.6,68.3-30.6c4.8,0,8.8,3.9,8.8,8.8s-3.9,8.8-8.8,8.8c-21,0-41.1,8.8-55.6,24.5c-3.1,3.5-8.8,3.9-12.3,0.9
		S285.3,279.2,288.8,275.7L288.8,275.7z M261.2,420.1l-12.3,12.7c-48.6-54.7-48.6-136.9,0-191.6l12.3,12.7
		C219.6,301.6,219.6,372.9,261.2,420.1L261.2,420.1z M465.1,432.8l-12.3-12.7c41.6-47.7,41.6-119,0-166.7l12.3-12.3
		C513.6,295.9,513.6,378.1,465.1,432.8L465.1,432.8z M561.8,571.1v0.9c-16.2,7.4-34.6,7.4-50.8,0v-0.9l-1.3-6.6
		c0-14.4,11.8-26.3,26.3-26.3s26.3,11.8,26.3,26.3C562.6,566.7,562.2,568.9,561.8,571.1z M579.7,559.2c-1.8-13.1-9.2-24.9-20.1-31.9
		c10.9-12.7,9.6-32.4-3.5-43.3s-32.4-9.6-43.3,3.5c-9.6,11.4-9.6,28.4,0,39.8c-11.4,7-18.8,18.8-20.1,31.9
		c-24.1-24.1-23.6-62.6,0.4-86.6s62.6-23.6,86.6,0.4C603.3,497.1,603.3,535.6,579.7,559.2L579.7,559.2z"/>
	
		<use xlink:href="#c"  width="8.9" height="12.3" x="-4.4" y="-6.1" transform="matrix(57.142 0 0 -57.142 436.0547 -945.625)" style="overflow:visible;"/>
	
		<use xlink:href="#a"  width="12.8" height="12.6" x="-6.4" y="-6.3" transform="matrix(54.5008 0 0 -54.5008 446.8398 -945.625)" style="overflow:visible;"/>
	
		<use xlink:href="#m"  width="12.1" height="12.6" x="-6.1" y="-6.3" transform="matrix(55.7217 0 0 -55.7217 461.6797 -945.625)" style="overflow:visible;"/>
	
		<use xlink:href="#b"  width="9.7" height="15.4" x="-4.8" y="-7.7" transform="matrix(45.5747 0 0 -45.5747 476.4375 -945.625)" style="overflow:visible;"/>
	
		<use xlink:href="#a"  width="12.8" height="12.6" x="-6.4" y="-6.3" transform="matrix(54.5008 0 0 -54.5008 486.8945 -945.625)" style="overflow:visible;"/>
	
		<use xlink:href="#l"  width="12.8" height="16.9" x="-6.4" y="-8.5" transform="matrix(41.3285 0 0 -41.3285 501.7305 -945.625)" style="overflow:visible;"/>
	
		<use xlink:href="#k"  width="12.8" height="16.9" x="-6.4" y="-8.5" transform="matrix(41.3284 0 0 -41.3284 525.0078 -945.625)" style="overflow:visible;"/>
	
		<use xlink:href="#j"  width="13.6" height="16.7" x="-6.8" y="-8.3" transform="matrix(41.9469 0 0 -41.9469 540.6641 -945.625)" style="overflow:visible;"/>
	
		<use xlink:href="#i"  width="22.8" height="16" x="-11.4" y="-8" transform="matrix(30.727 0 0 -30.727 562.5391 -945.625)" style="overflow:visible;"/>
	
		<use xlink:href="#g"  width="11.3" height="16" x="-5.7" y="-8" transform="matrix(43.8783 0 0 -43.8783 586.668 -945.625)" style="overflow:visible;"/>
	
		<use xlink:href="#z"  width="13.1" height="16" x="-6.6" y="-8" transform="matrix(43.8789 0 0 -43.8789 601.6133 -945.625)" style="overflow:visible;"/>
	
		<use xlink:href="#y"  width="14.7" height="16" x="-7.3" y="-8" transform="matrix(43.8778 0 0 -43.8778 618.2852 -945.625)" style="overflow:visible;"/>
	
		<use xlink:href="#g"  width="11.3" height="16" x="-5.7" y="-8" transform="matrix(43.8783 0 0 -43.8783 633.207 -945.625)" style="overflow:visible;"/>
	
		<use xlink:href="#h"  width="13.6" height="16.5" x="-6.8" y="-8.3" transform="matrix(42.3037 0 0 -42.3037 648.1484 -945.625)" style="overflow:visible;"/>
	
		<use xlink:href="#x"  width="14.3" height="16" x="-7.1" y="-8" transform="matrix(43.8789 0 0 -43.8789 664.2031 -945.625)" style="overflow:visible;"/>
	
		<use xlink:href="#w"  width="16.4" height="16.5" x="-8.2" y="-8.3" transform="matrix(42.3043 0 0 -42.3043 682.5117 -945.625)" style="overflow:visible;"/>
	
		<use xlink:href="#e"  width="13.1" height="16" x="-6.6" y="-8" transform="matrix(43.8783 0 0 -43.8783 701.1055 -945.625)" style="overflow:visible;"/>
	
		<use xlink:href="#v"  width="12.6" height="16.5" x="-6.3" y="-8.3" transform="matrix(42.3044 0 0 -42.3044 717.1406 -945.625)" style="overflow:visible;"/>
	
		<use xlink:href="#f"  width="11.3" height="16" x="-5.7" y="-8" transform="matrix(43.8778 0 0 -43.8778 740.5078 -945.625)" style="overflow:visible;"/>
	
		<use xlink:href="#f"  width="11.3" height="16" x="-5.7" y="-8" transform="matrix(43.8778 0 0 -43.8778 754.4492 -945.625)" style="overflow:visible;"/>
	
		<use xlink:href="#e"  width="13.1" height="16" x="-6.6" y="-8" transform="matrix(43.8783 0 0 -43.8783 768.3867 -945.625)" style="overflow:visible;"/>
	
		<use xlink:href="#u"  width="9.3" height="16.6" x="-4.6" y="-8.3" transform="matrix(42.1052 0 0 -42.1052 420 -967.5)" style="overflow:visible;"/>
	
		<use xlink:href="#c"  width="8.9" height="12.3" x="-4.4" y="-6.1" transform="matrix(57.142 0 0 -57.142 429.5156 -967.5)" style="overflow:visible;"/>
	
		<use xlink:href="#d"  width="13.2" height="12.6" x="-6.6" y="-6.3" transform="matrix(53.2064 0 0 -53.2064 440.3047 -967.5)" style="overflow:visible;"/>
	
		<use xlink:href="#t"  width="19.3" height="12.3" x="-9.6" y="-6.1" transform="matrix(36.3633 0 0 -36.3633 455.332 -967.5)" style="overflow:visible;"/>
	
		<use xlink:href="#b"  width="9.7" height="15.4" x="-4.8" y="-7.7" transform="matrix(45.5747 0 0 -45.5747 485.7422 -967.5)" style="overflow:visible;"/>
	
		<use xlink:href="#s"  width="12" height="16.6" x="-6" y="-8.3" transform="matrix(42.1053 0 0 -42.1053 496.1992 -967.5)" style="overflow:visible;"/>
	
		<use xlink:href="#a"  width="12.8" height="12.6" x="-6.4" y="-6.3" transform="matrix(54.5008 0 0 -54.5008 511.7734 -967.5)" style="overflow:visible;"/>
	
		<use xlink:href="#r"  width="14.3" height="16" x="-7.1" y="-8" transform="matrix(43.8789 0 0 -43.8789 534.2227 -967.5)" style="overflow:visible;"/>
	
		<use xlink:href="#d"  width="13.2" height="12.6" x="-6.6" y="-6.3" transform="matrix(53.2064 0 0 -53.2064 552.5313 -967.5)" style="overflow:visible;"/>
	
		<use xlink:href="#q"  width="12" height="12.3" x="-6" y="-6.1" transform="matrix(56.9961 0 0 -56.9961 567.5586 -967.5)" style="overflow:visible;"/>
	
		<use xlink:href="#p"  width="12" height="12.3" x="-6" y="-6.1" transform="matrix(57.1419 0 0 -57.1419 583.1328 -967.5)" style="overflow:visible;"/>
	
		<use xlink:href="#e"  width="13.1" height="16" x="-6.6" y="-8" transform="matrix(43.8783 0 0 -43.8783 606.3203 -967.5)" style="overflow:visible;"/>
	
		<use xlink:href="#c"  width="8.9" height="12.3" x="-4.4" y="-6.1" transform="matrix(57.142 0 0 -57.142 622.3555 -967.5)" style="overflow:visible;"/>
	
		<use xlink:href="#d"  width="13.2" height="12.6" x="-6.6" y="-6.3" transform="matrix(53.2064 0 0 -53.2064 633.1406 -967.5)" style="overflow:visible;"/>
	
		<use xlink:href="#o"  width="6.4" height="21.3" x="-3.2" y="-10.7" transform="matrix(32.7966 0 0 -32.7966 648.1719 -967.5)" style="overflow:visible;"/>
	
		<use xlink:href="#a"  width="12.8" height="12.6" x="-6.4" y="-6.3" transform="matrix(54.5008 0 0 -54.5008 655.668 -967.5)" style="overflow:visible;"/>
	
		<use xlink:href="#n"  width="10.6" height="12.6" x="-5.3" y="-6.3" transform="matrix(55.7214 0 0 -55.7214 670.5039 -967.5)" style="overflow:visible;"/>
	
		<use xlink:href="#b"  width="9.7" height="15.4" x="-4.8" y="-7.7" transform="matrix(45.5747 0 0 -45.5747 683.4727 -967.5)" style="overflow:visible;"/>
</g>
</svg>
