<?xml version="1.0" encoding="utf-8"?>
<!-- Generator: Adobe Illustrator 21.0.0, SVG Export Plug-In . SVG Version: 6.00 Build 0)  -->
<svg version="1.1" id="Calque_1" xmlns="http://www.w3.org/2000/svg" xmlns:xlink="http://www.w3.org/1999/xlink" x="0px" y="0px"
	 viewBox="0 0 120 120" style="enable-background:new 0 0 120 120;" xml:space="preserve">
<style type="text/css">
	.st0{fill:#FEA500;}
</style>
<path class="st0" d="M104.2,21.2l-10.8-11l-5.8-6H36.5c-6.7,0-12,5.5-12,12v2.5l-5.3,1.4c-6.5,1.6-10.4,8.1-8.8,14.7l14.1,56.4
	c0.2,1.2,0.4,2.3,0.9,3.4l3,11.7c0.7,3.2,2.8,5.8,5.5,7.4c1.9,1.1,4.1,1.8,6.2,1.8c1.1,0,1.9-0.2,3-0.4l51.1-12.9l8.7-2.1
	c1.9-0.5,3.7-1.4,5.3-2.8c1.4-1.9,2.3-4.4,2.3-7.1V27.4L104.2,21.2z M24.3,66.1L16,33.2c-0.9-3.2,1.2-6.5,4.4-7.2l3.9-1.1V66.1z
	 M103,28.1H92c-3.7,0-6.7-3-6.7-6.7V10.3h0.4L103,28.1z M41.5,109c-1.6,0.4-3.2,0.2-4.6-0.7s-2.3-2.1-2.8-3.7l-0.7-3
	c1.1,0.4,2.1,0.4,3.2,0.4h32.9L41.5,109z M103.3,93c-1.1,1.8-3,3-5.3,3H36.5c-2.5,0-4.4-1.4-5.5-3.4l-0.5-2.3V90V16.3
	c0-3.4,2.7-6,6-6h43.3v11.1c0,6.7,5.5,12.2,12.2,12.2h12.2V90C104.2,91,103.8,92.1,103.3,93L103.3,93z"/>
<path class="st0" d="M42.5,70.2h15.2v4.1H42.5V70.2z"/>
<path class="st0" d="M65.5,70.2h26.9v4.1H65.5V70.2z"/>
<path class="st0" d="M77,59.7h15.2v4.1H77V59.7z"/>
<path class="st0" d="M42.5,59.7h26.9v4.1H42.5V59.7z"/>
<path class="st0" d="M42.9,81.8h31.6v4.1H42.9V81.8z"/>
<path class="st0" d="M82.3,81.8h10.4v4.1H82.3V81.8z"/>
</svg>
