<svg width="48" height="48" viewBox="0 0 48 48" fill="none" xmlns="http://www.w3.org/2000/svg">
<path d="M24 44C35.0457 44 44 35.0457 44 24C44 12.9543 35.0457 4 24 4C12.9543 4 4 12.9543 4 24C4 35.0457 12.9543 44 24 44Z" stroke="white" stroke-width="3"/>
<path d="M16 24C16 36 24 44 24 44C24 44 32 36 32 24C32 12 24 4 24 4C24 4 16 12 16 24Z" stroke="white" stroke-width="3" stroke-linejoin="round"/>
<path d="M42 30H6" stroke="white" stroke-width="3" stroke-linecap="round" stroke-linejoin="round"/>
<path d="M42 18H6" stroke="white" stroke-width="3" stroke-linecap="round" stroke-linejoin="round"/>
</svg>
