<svg width="40" height="40" viewBox="0 0 40 40" fill="none" xmlns="http://www.w3.org/2000/svg">
<rect width="40" height="40" rx="2.58065" fill="#FFC300"/>
<rect width="40" height="40" rx="2.58065" fill="url(#paint0_linear_91_35)"/>
<path d="M14.744 16.9964C14.744 16.9964 26.6143 10.355 27.3275 9.97569C28.0408 9.59639 27.7068 9.56728 27.3605 10.3423C27.0142 11.1173 22.1703 19.6388 22.1703 19.6388C21.9628 20.103 22.1278 20.6283 22.5389 20.812L25.5333 21.4751C26.1737 21.7612 26.134 22.7667 25.4682 23.1207L12.7135 30.7893C12.0002 31.1685 12.3332 31.1876 12.6795 30.4125L18.3717 20.9337C18.5791 20.4694 18.4141 19.9441 18.0031 19.7605L14.6789 18.642C14.0386 18.3559 14.0783 17.3504 14.744 16.9964Z" fill="#321700"/>
<path d="M14.2352 16.6691C14.2352 16.6691 27.3258 9.53619 28.1084 9.11997C28.8911 8.70374 28.5246 8.6718 28.1446 9.52228C27.7646 10.3728 22.6615 19.3274 22.6615 19.3274C22.4339 19.8368 22.615 20.4132 23.066 20.6147L26.0451 21.3594C26.7478 21.6734 26.7339 23.0011 26.0033 23.3895L11.7879 31.7588C11.0053 32.175 11.3707 32.1959 11.7507 31.3454L17.791 21.0896C18.0187 20.5801 18.1431 20.1926 17.6921 19.991L14.174 18.883C13.4713 18.569 13.5047 17.0575 14.2352 16.6691Z" stroke="#321700" stroke-width="0.1261" stroke-linecap="round" stroke-linejoin="round"/>
<defs>
<linearGradient id="paint0_linear_91_35" x1="20" y1="0" x2="20" y2="40" gradientUnits="userSpaceOnUse">
<stop stop-color="#FFD44A"/>
<stop offset="1" stop-color="#FFC300"/>
</linearGradient>
</defs>
</svg>
