<?xml version="1.0" encoding="utf-8"?>
<!-- Generator: Adobe Illustrator 21.0.0, SVG Export Plug-In . SVG Version: 6.00 Build 0)  -->
<svg version="1.1" id="Calque_1" xmlns="http://www.w3.org/2000/svg" xmlns:xlink="http://www.w3.org/1999/xlink" x="0px" y="0px"
	 viewBox="0 0 120 120" style="enable-background:new 0 0 120 120;" xml:space="preserve">
<style type="text/css">
	.st0{fill:#FEA500;stroke:#FEA500;stroke-width:2;stroke-miterlimit:10;}
</style>
<path class="st0" d="M73.2,96.8c-2.3,0-5.1-0.5-8.7-1.5C60,93.9,53.4,94,50.8,94.1c-0.7,0-1.3-0.5-1.3-1.2c0-0.7,0.5-1.3,1.2-1.3
	c3.4-0.1,9.8-0.1,14.5,1.3c5.1,1.5,11.4,2.5,12.5-0.7c1.3-3.7-5.8-7.9-8.3-8.9c-2-0.8-4.1-0.8-6.2-0.8c-3.9,0-8.3-0.1-13-4.7
	c-3.4-3.3-7.8-4.7-12-3.8c-1.4,0.3-2.5,0.7-3.7,1.1c-2,0.7-4,1.4-7.2,1.5c-0.7,0-1.3-0.5-1.3-1.2c0-0.7,0.5-1.3,1.2-1.3
	c2.9-0.2,4.5-0.7,6.5-1.4c1.2-0.4,2.4-0.8,3.9-1.2c5.1-1.1,10.3,0.5,14.3,4.4c4,4,7.6,4,11.3,4c2.3,0,4.7,0,7.1,1
	c3.1,1.3,11.7,6.2,9.7,12c-0.5,1.5-1.8,3.4-5.4,3.8C74.2,96.7,73.7,96.8,73.2,96.8L73.2,96.8z"/>
<path class="st0" d="M60.8,113.4c-1.3,0-2.4-0.2-3.3-0.5c-7.8-2.8-28-4.9-30.2-5.2c-0.7-0.1-1.2-0.7-1.1-1.4
	c0.1-0.7,0.7-1.2,1.4-1.1c2.3,0.2,22.7,2.4,30.8,5.3c2.6,0.9,8.2,0,14.9-2.6c5.8-2.2,11.4-5.2,13.4-7.2l25.5-24.8
	c1.5-1.5,1.9-3.2,1-4.3c-1.2-1.4-4.2-1.5-7.8,1L79.7,91.1c-0.6,0.4-1.3,0.3-1.7-0.3c-0.4-0.6-0.3-1.3,0.3-1.7l25.5-18.3
	c5-3.6,9.2-2.8,11.1-0.6c1.5,1.8,1.7,4.8-1.2,7.6l-25.5,24.8C84.6,106.3,69.5,113.4,60.8,113.4L60.8,113.4z"/>
<path class="st0" d="M5.5,113.5H26v-44H5.5C5.5,69.5,5.5,113.5,5.5,113.5z M27.3,116h-23c-0.7,0-1.2-0.5-1.2-1.2V68.3
	C3,67.6,3.6,67,4.2,67h23c0.7,0,1.2,0.5,1.2,1.2v46.5C28.5,115.5,28,116,27.3,116L27.3,116z"/>
<path class="st0" d="M71,5.5c-3.3,0-6.8,2.4-6.8,7.7c0,4.1,3,9.1,6.8,9.1c3.8,0,6.8-5,6.8-9.1C77.8,7.9,74.3,5.5,71,5.5z M71,24.8
	c-5.3,0-9.2-6.1-9.2-11.6C61.8,6.5,66.4,3,71,3s9.2,3.5,9.2,10.1C80.3,18.6,76.3,24.8,71,24.8z"/>
<path class="st0" d="M56.2,47.2h29.7V35.4c0-3.1-2.5-5.5-5.5-5.5H61.7c-3.1,0-5.5,2.5-5.5,5.5L56.2,47.2z M87.1,49.6H54.9
	c-0.7,0-1.2-0.5-1.2-1.2V35.4c0-4.4,3.6-8,8-8h18.6c4.4,0,8,3.6,8,8v13.1C88.4,49.1,87.8,49.6,87.1,49.6L87.1,49.6z"/>
<path class="st0" d="M63.4,49.6c-0.7,0-1.2-0.5-1.2-1.2v-7.6c0-0.7,0.5-1.2,1.2-1.2c0.7,0,1.2,0.5,1.2,1.2v7.6
	C64.7,49.1,64.1,49.6,63.4,49.6L63.4,49.6z"/>
<path class="st0" d="M78.6,49.6c-0.7,0-1.2-0.5-1.2-1.2v-7.6c0-0.7,0.5-1.2,1.2-1.2c0.7,0,1.2,0.5,1.2,1.2v7.6
	C79.8,49.1,79.3,49.6,78.6,49.6L78.6,49.6z"/>
<path class="st0" d="M43.7,24.2c-2.7,0-5.7,2-5.7,6.4c0,3.5,2.5,7.8,5.7,7.8c3.2,0,5.7-4.2,5.7-7.8C49.4,26.2,46.5,24.2,43.7,24.2
	L43.7,24.2z M43.7,40.8c-4.7,0-8.2-5.4-8.2-10.2c0-5.9,4.1-8.9,8.2-8.9c4.1,0,8.1,3.1,8.1,8.9C51.9,35.4,48.4,40.8,43.7,40.8z"/>
<path class="st0" d="M57.6,62.3H29.8c-0.7,0-1.2-0.5-1.2-1.2V49.8c0-3.9,3.2-7.1,7.1-7.1h16.1c1.4,0,2.7,0.4,3.8,1.1
	c0.6,0.4,0.7,1.1,0.4,1.7c-0.4,0.6-1.1,0.7-1.7,0.4c-0.7-0.5-1.6-0.7-2.5-0.7H35.7c-2.5,0-4.6,2.1-4.6,4.6v10h25.4l0-10.1
	c0-0.4-0.1-0.7-0.1-1.1c-0.2-0.7,0.2-1.3,0.9-1.5c0.7-0.2,1.3,0.2,1.5,0.9c0.2,0.6,0.2,1.1,0.2,1.7v11.3
	C58.9,61.8,58.3,62.3,57.6,62.3L57.6,62.3z"/>
<path class="st0" d="M36.8,62.3c-0.7,0-1.2-0.5-1.2-1.2v-6.9c0-0.7,0.5-1.2,1.2-1.2c0.7,0,1.2,0.6,1.2,1.2v6.9
	C38,61.8,37.5,62.3,36.8,62.3z"/>
<path class="st0" d="M50.6,62.3c-0.7,0-1.2-0.5-1.2-1.2v-6.9c0-0.7,0.5-1.2,1.2-1.2c0.7,0,1.2,0.6,1.2,1.2v6.9
	C51.9,61.8,51.3,62.3,50.6,62.3z"/>
<path class="st0" d="M98.3,24.2c-2.7,0-5.7,2-5.7,6.4c0,3.5,2.5,7.8,5.7,7.8c3.2,0,5.7-4.2,5.7-7.8C104,26.2,101,24.2,98.3,24.2z
	 M98.3,40.8c-4.7,0-8.2-5.4-8.2-10.2c0-5.9,4.1-8.9,8.2-8.9c4.1,0,8.1,3.1,8.1,8.9C106.5,35.4,103,40.8,98.3,40.8z"/>
<path class="st0" d="M112.2,62.3H84.4c-0.7,0-1.2-0.5-1.2-1.2V49.8c0-0.6,0.1-1.2,0.2-1.7c0.2-0.7,0.8-1.1,1.5-0.9
	c0.7,0.2,1.1,0.8,0.9,1.5c-0.1,0.4-0.1,0.7-0.1,1.1v10H111v-10c0-2.5-2.1-4.6-4.6-4.6H90.3c-0.9,0-1.7,0.3-2.5,0.7
	c-0.6,0.4-1.3,0.2-1.7-0.4c-0.4-0.6-0.2-1.3,0.4-1.7c1.1-0.7,2.5-1.1,3.8-1.1h16.1c3.9,0,7.1,3.2,7.1,7.1v11.3
	c0,0.3-0.1,0.6-0.4,0.9C112.9,62.2,112.6,62.3,112.2,62.3L112.2,62.3z"/>
<path class="st0" d="M105.2,62.3c-0.7,0-1.2-0.5-1.2-1.2v-6.9c0-0.7,0.5-1.2,1.2-1.2c0.7,0,1.2,0.6,1.2,1.2v6.9
	C106.4,61.8,105.9,62.3,105.2,62.3z"/>
<path class="st0" d="M91.4,62.3c-0.7,0-1.2-0.5-1.2-1.2v-6.9c0-0.7,0.5-1.2,1.2-1.2c0.7,0,1.2,0.6,1.2,1.2v6.9
	C92.6,61.8,92.1,62.3,91.4,62.3z"/>
</svg>
