<svg width="48" height="48" viewBox="0 0 48 48" fill="none" xmlns="http://www.w3.org/2000/svg">
<path d="M6 21.9731V30.9863C6 36.6513 6 39.4839 7.75736 41.2439C9.51472 43.0039 12.3431 43.0039 18 43.0039H29.9999C35.6567 43.0039 38.4851 43.0039 40.2425 41.2439C41.9999 39.4839 41.9999 36.6513 41.9999 30.9863V21.9731" stroke="white" stroke-width="3"/>
<path d="M14 35.9482H21.9999" stroke="white" stroke-width="3" stroke-linecap="round"/>
<path d="M35.5913 5.00098L12.2997 5.05908C8.82331 4.88022 7.93199 7.55718 7.93199 8.8658C7.93199 10.0362 7.7811 11.7424 5.65048 14.9492C3.51986 18.1561 3.67996 19.1087 4.88142 21.3288C5.87856 23.1714 8.41482 23.891 9.73724 24.0122C13.9377 24.1076 15.9813 20.4796 15.9813 17.9299C18.065 24.3366 23.9911 24.3366 26.6315 23.604C29.2771 22.87 31.5433 20.2428 32.0781 17.9299C32.3899 20.8042 33.3363 22.4816 36.1325 23.634C39.0289 24.8278 41.5197 23.0032 42.7695 21.8336C44.0193 20.664 44.8213 18.0673 42.5935 15.2133C41.0571 13.2451 40.4167 11.391 40.2065 9.46924C40.0845 8.35574 39.9775 7.15922 39.1943 6.3978C38.0495 5.28506 36.4071 4.94744 35.5913 5.00098Z" stroke="white" stroke-width="3" stroke-linecap="round" stroke-linejoin="round"/>
</svg>
