<svg width="292" height="230" viewBox="0 0 292 230" fill="none" xmlns="http://www.w3.org/2000/svg">
<path d="M290.029 40.9724L291.997 103.669C292.026 104.478 291.84 105.28 291.459 105.995C291.078 106.709 290.516 107.31 289.828 107.738C289.14 108.165 288.351 108.404 287.541 108.429C286.731 108.455 285.929 108.266 285.216 107.883L272.527 101.085C266.343 110.467 191.912 237.621 1.62821 228.697C-0.865248 228.58 -0.339275 224.401 2.14915 224.204C183.528 209.876 234.655 96.823 241.221 84.3144L229.884 78.2412C229.17 77.8584 228.57 77.2952 228.142 76.6076C227.714 75.9201 227.475 75.1323 227.448 74.3233C227.421 73.5143 227.607 72.7122 227.987 71.9976C228.368 71.2829 228.93 70.6806 229.616 70.251L250.398 57.3821L282.979 37.1958C284.015 36.5612 285.256 36.351 286.443 36.6089C287.438 36.8411 288.329 37.3944 288.977 38.1833C289.625 38.9721 289.995 39.9524 290.029 40.9724Z" fill="#202440"/>
<path d="M145.453 2.96674L146.378 32.5874C146.392 32.9696 146.304 33.3484 146.125 33.6859C145.946 34.0234 145.682 34.3075 145.358 34.5094C145.035 34.7114 144.664 34.824 144.283 34.8361C143.903 34.8481 143.525 34.7592 143.19 34.5781L137.225 31.3666C134.317 35.799 99.3249 95.8716 9.86703 91.6556C8.69478 91.6004 8.94206 89.6259 10.1119 89.533C95.3834 82.7638 119.42 29.3529 122.507 23.4433L117.177 20.574C116.841 20.3932 116.559 20.1271 116.358 19.8023C116.157 19.4774 116.044 19.1053 116.032 18.7231C116.019 18.3409 116.106 17.9619 116.285 17.6243C116.464 17.2867 116.728 17.0021 117.051 16.7992L126.821 10.7193L142.139 1.1825C142.626 0.88269 143.209 0.783379 143.767 0.905228C144.235 1.01493 144.653 1.27636 144.958 1.64905C145.263 2.02173 145.437 2.48485 145.453 2.96674Z" fill="#3598DC"/>
<path d="M208.732 19.8797L210.087 63.3233C210.106 63.8838 209.979 64.4395 209.716 64.9345C209.454 65.4294 209.067 65.8461 208.593 66.1422C208.12 66.4384 207.577 66.6037 207.02 66.6214C206.462 66.6391 205.91 66.5086 205.419 66.243L196.685 61.5327C192.428 68.0337 141.197 156.14 10.2223 149.957C8.506 149.876 8.86804 146.98 10.5808 146.843C135.426 136.915 170.618 58.5793 175.137 49.9119L167.334 45.7037C166.842 45.4385 166.429 45.0482 166.134 44.5718C165.84 44.0954 165.675 43.5495 165.657 42.989C165.638 42.4284 165.766 41.8726 166.028 41.3774C166.29 40.8823 166.676 40.4649 167.149 40.1672L181.453 31.2502L203.88 17.2628C204.592 16.8231 205.447 16.6774 206.264 16.8561C206.949 17.017 207.561 17.4004 208.008 17.9471C208.454 18.4937 208.708 19.1729 208.732 19.8797Z" fill="#FEA500"/>
</svg>
