<svg width="48" height="48" viewBox="0 0 48 48" fill="none" xmlns="http://www.w3.org/2000/svg">
<path d="M17.2563 25.3472H16.3384C13.3709 25.3472 11.8872 25.3472 11.2547 24.3688C10.6223 23.3906 11.2249 22.0276 12.4301 19.3017L16.0534 11.1065C17.1491 8.628 17.697 7.38876 18.7599 6.69438C19.8228 6 21.1718 6 23.87 6H28.0488C31.3264 6 32.9652 6 33.5832 7.0707C34.2014 8.1414 33.3884 9.57176 31.7622 12.4325L29.6184 16.2038C28.81 17.6259 28.4058 18.337 28.4114 18.919C28.4188 19.6755 28.821 20.3724 29.4708 20.754C29.9708 21.0478 30.7854 21.0478 32.4148 21.0478C34.4746 21.0478 35.5046 21.0478 36.041 21.4044C36.7378 21.8676 37.1026 22.6964 36.9748 23.5264C36.8764 24.1652 36.1836 24.9312 34.798 26.4634L23.7278 38.7046C21.5534 41.109 20.4662 42.3112 19.7361 41.9308C19.0061 41.5502 19.3567 39.9644 20.0578 36.7924L21.4314 30.5792C21.9652 28.164 22.2322 26.9564 21.5902 26.1518C20.9482 25.3472 19.7175 25.3472 17.2563 25.3472Z" stroke="white" stroke-width="3" stroke-linejoin="round"/>
</svg>
